<svg width="41" height="40" viewBox="0 0 41 40" fill="none" xmlns="http://www.w3.org/2000/svg">
<path d="M37.3702 31.3495V15.7786H40.8304V31.3495H37.3702ZM37.3702 40V36.5398H40.8304V40H37.3702Z" fill="#738F93"/>
<path d="M20.7612 31.1419L10.3806 27.5086L2.33564 30.6228C1.75894 30.8535 1.22549 30.7884 0.735294 30.4273C0.245098 30.0663 0 29.5836 0 28.9792V4.75779C0 4.38293 0.10842 4.05133 0.325259 3.76298C0.542099 3.47463 0.83737 3.25836 1.21107 3.11419L10.3806 0L20.7612 3.63322L28.8062 0.519031C29.3829 0.288351 29.9164 0.353518 30.4066 0.714533C30.8968 1.07555 31.1419 1.55825 31.1419 2.16263V26.3841C31.1419 26.7589 31.0335 27.0905 30.8166 27.3789C30.5998 27.6672 30.3045 27.8835 29.9308 28.0277L20.7612 31.1419ZM19.0311 26.9031V6.6609L12.1107 4.23875V24.481L19.0311 26.9031ZM22.4913 26.9031L27.6817 25.173V4.67128L22.4913 6.6609V26.9031ZM3.46021 26.4706L8.65052 24.481V4.23875L3.46021 5.96886V26.4706Z" fill="#738F93"/>
</svg>
