<svg width="41" height="40" viewBox="0 0 41 40" fill="none" xmlns="http://www.w3.org/2000/svg">
<path d="M12 34.6667C12.3778 34.6667 12.6947 34.5387 12.9507 34.2827C13.2067 34.0267 13.3342 33.7102 13.3333 33.3333C13.3333 32.9556 13.2053 32.6387 12.9493 32.3827C12.6933 32.1267 12.3769 31.9991 12 32C11.6222 32 11.3053 32.128 11.0493 32.384C10.7933 32.64 10.6658 32.9564 10.6667 33.3333C10.6667 33.7111 10.7947 34.028 11.0507 34.284C11.3067 34.54 11.6231 34.6676 12 34.6667ZM10.6667 29.3333H13.3333V21.3333H10.6667V29.3333ZM7 40L0 33V23L7 16H17L24 23V33L17 40H7ZM8.13333 37.3333H15.8667L21.3333 31.8667V24.1333L15.8667 18.6667H8.13333L2.66667 24.1333V31.8667L8.13333 37.3333Z" fill="#738F93"/>
<path d="M29.0663 19.2V10.9714H20.48V8.22857H29.0663V0H31.9284V8.22857H40.5148V10.9714H31.9284V19.2H29.0663Z" fill="#738F93"/>
</svg>
